<?xml version="1.0" encoding="UTF-8" standalone="no"?>
<!DOCTYPE svg PUBLIC "-//W3C//DTD SVG 1.1//EN"
 "http://www.w3.org/Graphics/SVG/1.1/DTD/svg11.dtd">
<!-- Generated by graphviz version 13.1.0 (20250701.0955)
 -->
<!-- Title: interface/driver_ssd1681_interface.h Pages: 1 -->
<svg width="390pt" height="176pt"
 viewBox="0.00 0.00 390.00 176.00" xmlns="http://www.w3.org/2000/svg" xmlns:xlink="http://www.w3.org/1999/xlink">
<g id="graph0" class="graph" transform="scale(1 1) rotate(0) translate(4 172)">
<title>interface/driver_ssd1681_interface.h</title>
<!-- Node1 -->
<g id="Node000001" class="node">
<title>Node1</title>
<g id="a_Node000001"><a xlink:title="driver ssd1681 interface header file">
<polygon fill="#999999" stroke="#666666" points="262.12,-168 139.62,-168 139.62,-136 262.12,-136 262.12,-168"/>
<text xml:space="preserve" text-anchor="start" x="147.62" y="-154.5" font-family="Helvetica,sans-Serif" font-size="10.00">interface/driver_ssd1681</text>
<text xml:space="preserve" text-anchor="middle" x="200.88" y="-142.5" font-family="Helvetica,sans-Serif" font-size="10.00">_interface.h</text>
</a>
</g>
</g>
<!-- Node2 -->
<g id="Node000002" class="node">
<title>Node2</title>
<g id="a_Node000002"><a xlink:href="driver__ssd1681__basic_8h.html" target="_top" xlink:title="driver ssd1681 basic header file">
<polygon fill="white" stroke="#666666" points="121.75,-100 0,-100 0,-68 121.75,-68 121.75,-100"/>
<text xml:space="preserve" text-anchor="start" x="8" y="-86.5" font-family="Helvetica,sans-Serif" font-size="10.00">example/driver_ssd1681</text>
<text xml:space="preserve" text-anchor="middle" x="60.88" y="-74.5" font-family="Helvetica,sans-Serif" font-size="10.00">_basic.h</text>
</a>
</g>
</g>
<!-- Node1&#45;&gt;Node2 -->
<g id="edge1_Node000001_Node000002" class="edge">
<title>Node1&#45;&gt;Node2</title>
<g id="a_edge1_Node000001_Node000002"><a xlink:title=" ">
<path fill="none" stroke="#63b8ff" d="M157.9,-130.74C137.16,-120.96 112.68,-109.42 93.49,-100.38"/>
<polygon fill="#63b8ff" stroke="#63b8ff" points="156.14,-133.78 166.68,-134.88 159.13,-127.45 156.14,-133.78"/>
</a>
</g>
</g>
<!-- Node4 -->
<g id="Node000004" class="node">
<title>Node4</title>
<g id="a_Node000004"><a xlink:href="driver__ssd1681__interface__template_8c.html" target="_top" xlink:title="driver ssd1681 interface template source file">
<polygon fill="white" stroke="#666666" points="262.12,-100 139.62,-100 139.62,-68 262.12,-68 262.12,-100"/>
<text xml:space="preserve" text-anchor="start" x="147.62" y="-86.5" font-family="Helvetica,sans-Serif" font-size="10.00">interface/driver_ssd1681</text>
<text xml:space="preserve" text-anchor="middle" x="200.88" y="-74.5" font-family="Helvetica,sans-Serif" font-size="10.00">_interface_template.c</text>
</a>
</g>
</g>
<!-- Node1&#45;&gt;Node4 -->
<g id="edge3_Node000001_Node000004" class="edge">
<title>Node1&#45;&gt;Node4</title>
<g id="a_edge3_Node000001_Node000004"><a xlink:title=" ">
<path fill="none" stroke="#63b8ff" d="M200.88,-124.31C200.88,-116.12 200.88,-107.38 200.88,-100.22"/>
<polygon fill="#63b8ff" stroke="#63b8ff" points="197.38,-124.18 200.88,-134.18 204.38,-124.18 197.38,-124.18"/>
</a>
</g>
</g>
<!-- Node5 -->
<g id="Node000005" class="node">
<title>Node5</title>
<g id="a_Node000005"><a xlink:href="driver__ssd1681__display__test_8h.html" target="_top" xlink:title="driver ssd1681 display test header file">
<polygon fill="white" stroke="#666666" points="381.62,-100 280.12,-100 280.12,-68 381.62,-68 381.62,-100"/>
<text xml:space="preserve" text-anchor="start" x="288.12" y="-86.5" font-family="Helvetica,sans-Serif" font-size="10.00">test/driver_ssd1681</text>
<text xml:space="preserve" text-anchor="middle" x="330.88" y="-74.5" font-family="Helvetica,sans-Serif" font-size="10.00">_display_test.h</text>
</a>
</g>
</g>
<!-- Node1&#45;&gt;Node5 -->
<g id="edge4_Node000001_Node000005" class="edge">
<title>Node1&#45;&gt;Node5</title>
<g id="a_edge4_Node000001_Node000005"><a xlink:title=" ">
<path fill="none" stroke="#63b8ff" d="M241.57,-130.34C260.66,-120.65 283.02,-109.3 300.59,-100.38"/>
<polygon fill="#63b8ff" stroke="#63b8ff" points="240.04,-127.19 232.7,-134.84 243.2,-133.43 240.04,-127.19"/>
</a>
</g>
</g>
<!-- Node3 -->
<g id="Node000003" class="node">
<title>Node3</title>
<g id="a_Node000003"><a xlink:href="driver__ssd1681__basic_8c.html" target="_top" xlink:title="driver ssd1681 basic source file">
<polygon fill="white" stroke="#666666" points="121.75,-32 0,-32 0,0 121.75,0 121.75,-32"/>
<text xml:space="preserve" text-anchor="start" x="8" y="-18.5" font-family="Helvetica,sans-Serif" font-size="10.00">example/driver_ssd1681</text>
<text xml:space="preserve" text-anchor="middle" x="60.88" y="-6.5" font-family="Helvetica,sans-Serif" font-size="10.00">_basic.c</text>
</a>
</g>
</g>
<!-- Node2&#45;&gt;Node3 -->
<g id="edge2_Node000002_Node000003" class="edge">
<title>Node2&#45;&gt;Node3</title>
<g id="a_edge2_Node000002_Node000003"><a xlink:title=" ">
<path fill="none" stroke="#63b8ff" d="M60.88,-56.31C60.88,-48.12 60.88,-39.38 60.88,-32.22"/>
<polygon fill="#63b8ff" stroke="#63b8ff" points="57.38,-56.18 60.88,-66.18 64.38,-56.18 57.38,-56.18"/>
</a>
</g>
</g>
<!-- Node6 -->
<g id="Node000006" class="node">
<title>Node6</title>
<g id="a_Node000006"><a xlink:href="driver__ssd1681__display__test_8c.html" target="_top" xlink:title="driver ssd1681 display test source file">
<polygon fill="white" stroke="#666666" points="381.62,-32 280.12,-32 280.12,0 381.62,0 381.62,-32"/>
<text xml:space="preserve" text-anchor="start" x="288.12" y="-18.5" font-family="Helvetica,sans-Serif" font-size="10.00">test/driver_ssd1681</text>
<text xml:space="preserve" text-anchor="middle" x="330.88" y="-6.5" font-family="Helvetica,sans-Serif" font-size="10.00">_display_test.c</text>
</a>
</g>
</g>
<!-- Node5&#45;&gt;Node6 -->
<g id="edge5_Node000005_Node000006" class="edge">
<title>Node5&#45;&gt;Node6</title>
<g id="a_edge5_Node000005_Node000006"><a xlink:title=" ">
<path fill="none" stroke="#63b8ff" d="M330.88,-56.31C330.88,-48.12 330.88,-39.38 330.88,-32.22"/>
<polygon fill="#63b8ff" stroke="#63b8ff" points="327.38,-56.18 330.88,-66.18 334.38,-56.18 327.38,-56.18"/>
</a>
</g>
</g>
</g>
</svg>
