<?xml version="1.0" encoding="UTF-8" standalone="no"?>
<!DOCTYPE svg PUBLIC "-//W3C//DTD SVG 1.1//EN"
 "http://www.w3.org/Graphics/SVG/1.1/DTD/svg11.dtd">
<!-- Generated by graphviz version 13.1.0 (20250701.0955)
 -->
<!-- Title: ssd1681_basic_init Pages: 1 -->
<svg width="297pt" height="1960pt"
 viewBox="0.00 0.00 297.00 1960.00" xmlns="http://www.w3.org/2000/svg" xmlns:xlink="http://www.w3.org/1999/xlink">
<g id="graph0" class="graph" transform="scale(1 1) rotate(0) translate(4 1956)">
<title>ssd1681_basic_init</title>
<!-- Node1 -->
<g id="Node000001" class="node">
<title>Node1</title>
<g id="a_Node000001"><a xlink:title="basic example init">
<polygon fill="#999999" stroke="#666666" points="99.25,-956 0,-956 0,-936 99.25,-936 99.25,-956"/>
<text xml:space="preserve" text-anchor="middle" x="49.62" y="-942.5" font-family="Helvetica,sans-Serif" font-size="10.00">ssd1681_basic_init</text>
</a>
</g>
</g>
<!-- Node2 -->
<g id="Node000002" class="node">
<title>Node2</title>
<g id="a_Node000002"><a xlink:href="group__ssd1681__base__driver.html#ga0744a4c9d9d103860bb5c35628c442f8" target="_top" xlink:title="close the chip">
<polygon fill="white" stroke="#666666" points="252.88,-1952 171.62,-1952 171.62,-1932 252.88,-1932 252.88,-1952"/>
<text xml:space="preserve" text-anchor="middle" x="212.25" y="-1938.5" font-family="Helvetica,sans-Serif" font-size="10.00">ssd1681_deinit</text>
</a>
</g>
</g>
<!-- Node1&#45;&gt;Node2 -->
<g id="edge1_Node000001_Node000002" class="edge">
<title>Node1&#45;&gt;Node2</title>
<g id="a_edge1_Node000001_Node000002"><a xlink:title=" ">
<path fill="none" stroke="#63b8ff" d="M50.8,-956.37C52.62,-1056.24 69.03,-1845.35 135.25,-1923 141.73,-1930.59 150.73,-1935.4 160.29,-1938.38"/>
<polygon fill="#63b8ff" stroke="#63b8ff" points="159.19,-1941.72 169.74,-1940.68 160.85,-1934.91 159.19,-1941.72"/>
</a>
</g>
</g>
<!-- Node3 -->
<g id="Node000003" class="node">
<title>Node3</title>
<g id="a_Node000003"><a xlink:href="group__ssd1681__base__driver.html#ga4392edcbd331d7baa7a853f5317256dc" target="_top" xlink:title="clear the screen in the gram">
<polygon fill="white" stroke="#666666" points="265.25,-1914 159.25,-1914 159.25,-1894 265.25,-1894 265.25,-1914"/>
<text xml:space="preserve" text-anchor="middle" x="212.25" y="-1900.5" font-family="Helvetica,sans-Serif" font-size="10.00">ssd1681_gram_clear</text>
</a>
</g>
</g>
<!-- Node1&#45;&gt;Node3 -->
<g id="edge2_Node000001_Node000003" class="edge">
<title>Node1&#45;&gt;Node3</title>
<g id="a_edge2_Node000001_Node000003"><a xlink:title=" ">
<path fill="none" stroke="#63b8ff" d="M50.84,-956.27C52.97,-1053.54 71.53,-1810.54 135.25,-1885 139.02,-1889.41 143.65,-1892.87 148.74,-1895.59"/>
<polygon fill="#63b8ff" stroke="#63b8ff" points="147.03,-1898.67 157.6,-1899.35 149.76,-1892.22 147.03,-1898.67"/>
</a>
</g>
</g>
<!-- Node4 -->
<g id="Node000004" class="node">
<title>Node4</title>
<g id="a_Node000004"><a xlink:href="group__ssd1681__base__driver.html#ga0ddf061744012e0bc6199ea3b1b1caaa" target="_top" xlink:title="initialize the chip">
<polygon fill="white" stroke="#666666" points="247.62,-1876 176.88,-1876 176.88,-1856 247.62,-1856 247.62,-1876"/>
<text xml:space="preserve" text-anchor="middle" x="212.25" y="-1862.5" font-family="Helvetica,sans-Serif" font-size="10.00">ssd1681_init</text>
</a>
</g>
</g>
<!-- Node1&#45;&gt;Node4 -->
<g id="edge3_Node000001_Node000004" class="edge">
<title>Node1&#45;&gt;Node4</title>
<g id="a_edge3_Node000001_Node000004"><a xlink:title=" ">
<path fill="none" stroke="#63b8ff" d="M50.89,-956.45C53.37,-1052.23 74.08,-1775.79 135.25,-1847 142.97,-1855.99 154.25,-1861.06 165.76,-1863.84"/>
<polygon fill="#63b8ff" stroke="#63b8ff" points="164.8,-1867.22 175.27,-1865.58 166.06,-1860.34 164.8,-1867.22"/>
</a>
</g>
</g>
<!-- Node5 -->
<g id="Node000005" class="node">
<title>Node5</title>
<g id="a_Node000005"><a xlink:href="group__ssd1681__interface__driver.html#gaf79b75f3b59351ea10e9b7c419bba757" target="_top" xlink:title="interface busy gpio deinit">
<polygon fill="white" stroke="#666666" points="273.12,-1838 151.38,-1838 151.38,-1806 273.12,-1806 273.12,-1838"/>
<text xml:space="preserve" text-anchor="start" x="159.38" y="-1824.5" font-family="Helvetica,sans-Serif" font-size="10.00">ssd1681_interface_busy</text>
<text xml:space="preserve" text-anchor="middle" x="212.25" y="-1812.5" font-family="Helvetica,sans-Serif" font-size="10.00">_gpio_deinit</text>
</a>
</g>
</g>
<!-- Node1&#45;&gt;Node5 -->
<g id="edge4_Node000001_Node000005" class="edge">
<title>Node1&#45;&gt;Node5</title>
<g id="a_edge4_Node000001_Node000005"><a xlink:title=" ">
<path fill="none" stroke="#63b8ff" d="M50.98,-956.42C54.23,-1048.93 79.86,-1727.95 135.25,-1797 137.11,-1799.32 139.2,-1801.43 141.45,-1803.35"/>
<polygon fill="#63b8ff" stroke="#63b8ff" points="139.41,-1806.19 149.64,-1808.96 143.37,-1800.42 139.41,-1806.19"/>
</a>
</g>
</g>
<!-- Node6 -->
<g id="Node000006" class="node">
<title>Node6</title>
<g id="a_Node000006"><a xlink:href="group__ssd1681__interface__driver.html#gae8d743a93ee0f413f8308987467a4085" target="_top" xlink:title="interface busy gpio init">
<polygon fill="white" stroke="#666666" points="273.12,-1788 151.38,-1788 151.38,-1756 273.12,-1756 273.12,-1788"/>
<text xml:space="preserve" text-anchor="start" x="159.38" y="-1774.5" font-family="Helvetica,sans-Serif" font-size="10.00">ssd1681_interface_busy</text>
<text xml:space="preserve" text-anchor="middle" x="212.25" y="-1762.5" font-family="Helvetica,sans-Serif" font-size="10.00">_gpio_init</text>
</a>
</g>
</g>
<!-- Node1&#45;&gt;Node6 -->
<g id="edge5_Node000001_Node000006" class="edge">
<title>Node1&#45;&gt;Node6</title>
<g id="a_edge5_Node000001_Node000006"><a xlink:title=" ">
<path fill="none" stroke="#63b8ff" d="M51.05,-956.36C54.76,-1045.58 82.99,-1682.26 135.25,-1747 137.12,-1749.32 139.21,-1751.42 141.47,-1753.33"/>
<polygon fill="#63b8ff" stroke="#63b8ff" points="139.44,-1756.18 149.67,-1758.93 143.39,-1750.4 139.44,-1756.18"/>
</a>
</g>
</g>
<!-- Node7 -->
<g id="Node000007" class="node">
<title>Node7</title>
<g id="a_Node000007"><a xlink:href="group__ssd1681__interface__driver.html#gad073b440d43d557b340f978a1280050e" target="_top" xlink:title="interface busy gpio read">
<polygon fill="white" stroke="#666666" points="273.12,-1738 151.38,-1738 151.38,-1706 273.12,-1706 273.12,-1738"/>
<text xml:space="preserve" text-anchor="start" x="159.38" y="-1724.5" font-family="Helvetica,sans-Serif" font-size="10.00">ssd1681_interface_busy</text>
<text xml:space="preserve" text-anchor="middle" x="212.25" y="-1712.5" font-family="Helvetica,sans-Serif" font-size="10.00">_gpio_read</text>
</a>
</g>
</g>
<!-- Node1&#45;&gt;Node7 -->
<g id="edge6_Node000001_Node000007" class="edge">
<title>Node1&#45;&gt;Node7</title>
<g id="a_edge6_Node000001_Node000007"><a xlink:title=" ">
<path fill="none" stroke="#63b8ff" d="M51.12,-956.25C55.31,-1041.88 86.11,-1636.55 135.25,-1697 137.13,-1699.31 139.23,-1701.41 141.49,-1703.32"/>
<polygon fill="#63b8ff" stroke="#63b8ff" points="139.47,-1706.17 149.71,-1708.9 143.41,-1700.39 139.47,-1706.17"/>
</a>
</g>
</g>
<!-- Node8 -->
<g id="Node000008" class="node">
<title>Node8</title>
<g id="a_Node000008"><a xlink:href="group__ssd1681__interface__driver.html#gadf2741fff58c6f69996d76f18459befd" target="_top" xlink:title="interface print format data">
<polygon fill="white" stroke="#666666" points="275.75,-1688 148.75,-1688 148.75,-1656 275.75,-1656 275.75,-1688"/>
<text xml:space="preserve" text-anchor="start" x="156.75" y="-1674.5" font-family="Helvetica,sans-Serif" font-size="10.00">ssd1681_interface_debug</text>
<text xml:space="preserve" text-anchor="middle" x="212.25" y="-1662.5" font-family="Helvetica,sans-Serif" font-size="10.00">_print</text>
</a>
</g>
</g>
<!-- Node1&#45;&gt;Node8 -->
<g id="edge7_Node000001_Node000008" class="edge">
<title>Node1&#45;&gt;Node8</title>
<g id="a_edge7_Node000001_Node000008"><a xlink:title=" ">
<path fill="none" stroke="#63b8ff" d="M50.41,-956.37C48.99,-1034.83 43.66,-1535.24 135.25,-1647 136.52,-1648.55 137.89,-1650.01 139.34,-1651.37"/>
<polygon fill="#63b8ff" stroke="#63b8ff" points="137.17,-1654.12 147.26,-1657.35 141.38,-1648.53 137.17,-1654.12"/>
</a>
</g>
</g>
<!-- Node9 -->
<g id="Node000009" class="node">
<title>Node9</title>
<g id="a_Node000009"><a xlink:href="group__ssd1681__interface__driver.html#gabe57ce0ee0512816dd870d7794183b05" target="_top" xlink:title="interface delay ms">
<polygon fill="white" stroke="#666666" points="283.62,-1638 140.88,-1638 140.88,-1618 283.62,-1618 283.62,-1638"/>
<text xml:space="preserve" text-anchor="middle" x="212.25" y="-1624.5" font-family="Helvetica,sans-Serif" font-size="10.00">ssd1681_interface_delay_ms</text>
</a>
</g>
</g>
<!-- Node1&#45;&gt;Node9 -->
<g id="edge8_Node000001_Node000009" class="edge">
<title>Node1&#45;&gt;Node9</title>
<g id="a_edge8_Node000001_Node000009"><a xlink:title=" ">
<path fill="none" stroke="#63b8ff" d="M50.42,-956.11C49.1,-1031.57 44.5,-1506.85 135.25,-1609 135.72,-1609.52 136.19,-1610.04 136.68,-1610.53"/>
<polygon fill="#63b8ff" stroke="#63b8ff" points="134.3,-1613.11 144.31,-1616.56 138.64,-1607.62 134.3,-1613.11"/>
</a>
</g>
</g>
<!-- Node10 -->
<g id="Node000010" class="node">
<title>Node10</title>
<g id="a_Node000010"><a xlink:href="group__ssd1681__interface__driver.html#ga6d2c84f6377d2a23b10e124ab57885d0" target="_top" xlink:title="interface reset gpio deinit">
<polygon fill="white" stroke="#666666" points="273.5,-1600 151,-1600 151,-1568 273.5,-1568 273.5,-1600"/>
<text xml:space="preserve" text-anchor="start" x="159" y="-1586.5" font-family="Helvetica,sans-Serif" font-size="10.00">ssd1681_interface_reset</text>
<text xml:space="preserve" text-anchor="middle" x="212.25" y="-1574.5" font-family="Helvetica,sans-Serif" font-size="10.00">_gpio_deinit</text>
</a>
</g>
</g>
<!-- Node1&#45;&gt;Node10 -->
<g id="edge9_Node000001_Node000010" class="edge">
<title>Node1&#45;&gt;Node10</title>
<g id="a_edge9_Node000001_Node000010"><a xlink:title=" ">
<path fill="none" stroke="#63b8ff" d="M50.61,-956.2C50.69,-1028.39 54.57,-1462.26 135.25,-1559 137.12,-1561.24 139.19,-1563.28 141.42,-1565.14"/>
<polygon fill="#63b8ff" stroke="#63b8ff" points="139.23,-1567.88 149.47,-1570.6 143.16,-1562.09 139.23,-1567.88"/>
</a>
</g>
</g>
<!-- Node11 -->
<g id="Node000011" class="node">
<title>Node11</title>
<g id="a_Node000011"><a xlink:href="group__ssd1681__interface__driver.html#ga77b4d33d7f20a61bf0111c4f767852e1" target="_top" xlink:title="interface reset gpio init">
<polygon fill="white" stroke="#666666" points="273.5,-1550 151,-1550 151,-1518 273.5,-1518 273.5,-1550"/>
<text xml:space="preserve" text-anchor="start" x="159" y="-1536.5" font-family="Helvetica,sans-Serif" font-size="10.00">ssd1681_interface_reset</text>
<text xml:space="preserve" text-anchor="middle" x="212.25" y="-1524.5" font-family="Helvetica,sans-Serif" font-size="10.00">_gpio_init</text>
</a>
</g>
</g>
<!-- Node1&#45;&gt;Node11 -->
<g id="edge10_Node000001_Node000011" class="edge">
<title>Node1&#45;&gt;Node11</title>
<g id="a_edge10_Node000001_Node000011"><a xlink:title=" ">
<path fill="none" stroke="#63b8ff" d="M50.75,-956.24C51.76,-1025.12 60.81,-1420.82 135.25,-1509 137.13,-1511.23 139.22,-1513.26 141.46,-1515.11"/>
<polygon fill="#63b8ff" stroke="#63b8ff" points="139.28,-1517.86 149.53,-1520.55 143.19,-1512.06 139.28,-1517.86"/>
</a>
</g>
</g>
<!-- Node12 -->
<g id="Node000012" class="node">
<title>Node12</title>
<g id="a_Node000012"><a xlink:href="group__ssd1681__interface__driver.html#gab8689e2d8f29a641e35af65656dd3676" target="_top" xlink:title="interface reset gpio write">
<polygon fill="white" stroke="#666666" points="273.5,-1500 151,-1500 151,-1468 273.5,-1468 273.5,-1500"/>
<text xml:space="preserve" text-anchor="start" x="159" y="-1486.5" font-family="Helvetica,sans-Serif" font-size="10.00">ssd1681_interface_reset</text>
<text xml:space="preserve" text-anchor="middle" x="212.25" y="-1474.5" font-family="Helvetica,sans-Serif" font-size="10.00">_gpio_write</text>
</a>
</g>
</g>
<!-- Node1&#45;&gt;Node12 -->
<g id="edge11_Node000001_Node000012" class="edge">
<title>Node1&#45;&gt;Node12</title>
<g id="a_edge11_Node000001_Node000012"><a xlink:title=" ">
<path fill="none" stroke="#63b8ff" d="M50.91,-956.16C52.92,-1021.23 66.99,-1379.3 135.25,-1459 137.15,-1461.22 139.24,-1463.24 141.5,-1465.08"/>
<polygon fill="#63b8ff" stroke="#63b8ff" points="139.34,-1467.84 149.59,-1470.49 143.23,-1462.03 139.34,-1467.84"/>
</a>
</g>
</g>
<!-- Node13 -->
<g id="Node000013" class="node">
<title>Node13</title>
<g id="a_Node000013"><a xlink:href="group__ssd1681__interface__driver.html#ga38e449d967d67ac0b7787a8348d6ff45" target="_top" xlink:title="interface command &amp;&amp; data gpio deinit">
<polygon fill="white" stroke="#666666" points="270.12,-1450 154.38,-1450 154.38,-1418 270.12,-1418 270.12,-1450"/>
<text xml:space="preserve" text-anchor="start" x="162.38" y="-1436.5" font-family="Helvetica,sans-Serif" font-size="10.00">ssd1681_interface_spi</text>
<text xml:space="preserve" text-anchor="middle" x="212.25" y="-1424.5" font-family="Helvetica,sans-Serif" font-size="10.00">_cmd_data_gpio_deinit</text>
</a>
</g>
</g>
<!-- Node1&#45;&gt;Node13 -->
<g id="edge12_Node000001_Node000013" class="edge">
<title>Node1&#45;&gt;Node13</title>
<g id="a_edge12_Node000001_Node000013"><a xlink:title=" ">
<path fill="none" stroke="#63b8ff" d="M51.11,-956.35C54.23,-1018.12 73.24,-1337.85 135.25,-1409 137.89,-1412.02 140.89,-1414.68 144.16,-1417.02"/>
<polygon fill="#63b8ff" stroke="#63b8ff" points="142.24,-1419.95 152.62,-1422.03 145.8,-1413.93 142.24,-1419.95"/>
</a>
</g>
</g>
<!-- Node14 -->
<g id="Node000014" class="node">
<title>Node14</title>
<g id="a_Node000014"><a xlink:href="group__ssd1681__interface__driver.html#gaa4803e0fcd816c11cbe97eb04e06d49f" target="_top" xlink:title="interface command &amp;&amp; data gpio init">
<polygon fill="white" stroke="#666666" points="269,-1400 155.5,-1400 155.5,-1368 269,-1368 269,-1400"/>
<text xml:space="preserve" text-anchor="start" x="163.5" y="-1386.5" font-family="Helvetica,sans-Serif" font-size="10.00">ssd1681_interface_spi</text>
<text xml:space="preserve" text-anchor="middle" x="212.25" y="-1374.5" font-family="Helvetica,sans-Serif" font-size="10.00">_cmd_data_gpio_init</text>
</a>
</g>
</g>
<!-- Node1&#45;&gt;Node14 -->
<g id="edge13_Node000001_Node000014" class="edge">
<title>Node1&#45;&gt;Node14</title>
<g id="a_edge13_Node000001_Node000014"><a xlink:title=" ">
<path fill="none" stroke="#63b8ff" d="M51.36,-956.34C55.67,-1014.09 79.4,-1296.28 135.25,-1359 138.23,-1362.35 141.67,-1365.25 145.4,-1367.76"/>
<polygon fill="#63b8ff" stroke="#63b8ff" points="143.43,-1370.67 153.86,-1372.5 146.85,-1364.56 143.43,-1370.67"/>
</a>
</g>
</g>
<!-- Node15 -->
<g id="Node000015" class="node">
<title>Node15</title>
<g id="a_Node000015"><a xlink:href="group__ssd1681__interface__driver.html#ga1b082e36930233123dea768c9ae3623a" target="_top" xlink:title="interface command &amp;&amp; data gpio write">
<polygon fill="white" stroke="#666666" points="269,-1350 155.5,-1350 155.5,-1318 269,-1318 269,-1350"/>
<text xml:space="preserve" text-anchor="start" x="163.5" y="-1336.5" font-family="Helvetica,sans-Serif" font-size="10.00">ssd1681_interface_spi</text>
<text xml:space="preserve" text-anchor="middle" x="212.25" y="-1324.5" font-family="Helvetica,sans-Serif" font-size="10.00">_cmd_data_gpio_write</text>
</a>
</g>
</g>
<!-- Node1&#45;&gt;Node15 -->
<g id="edge14_Node000001_Node000015" class="edge">
<title>Node1&#45;&gt;Node15</title>
<g id="a_edge14_Node000001_Node000015"><a xlink:title=" ">
<path fill="none" stroke="#63b8ff" d="M51.69,-956.48C57.35,-1010.23 85.56,-1254.69 135.25,-1309 138.28,-1312.31 141.75,-1315.18 145.5,-1317.67"/>
<polygon fill="#63b8ff" stroke="#63b8ff" points="143.56,-1320.59 154,-1322.38 146.95,-1314.47 143.56,-1320.59"/>
</a>
</g>
</g>
<!-- Node16 -->
<g id="Node000016" class="node">
<title>Node16</title>
<g id="a_Node000016"><a xlink:href="group__ssd1681__interface__driver.html#ga5f0fd728f3fcd14b538bd93267fe50a9" target="_top" xlink:title="interface spi bus deinit">
<polygon fill="white" stroke="#666666" points="269,-1300 155.5,-1300 155.5,-1268 269,-1268 269,-1300"/>
<text xml:space="preserve" text-anchor="start" x="163.5" y="-1286.5" font-family="Helvetica,sans-Serif" font-size="10.00">ssd1681_interface_spi</text>
<text xml:space="preserve" text-anchor="middle" x="212.25" y="-1274.5" font-family="Helvetica,sans-Serif" font-size="10.00">_deinit</text>
</a>
</g>
</g>
<!-- Node1&#45;&gt;Node16 -->
<g id="edge15_Node000001_Node000016" class="edge">
<title>Node1&#45;&gt;Node16</title>
<g id="a_edge15_Node000001_Node000016"><a xlink:title=" ">
<path fill="none" stroke="#63b8ff" d="M50.16,-956.3C48.78,-999.53 49.29,-1168.29 135.25,-1259 138.19,-1262.11 141.53,-1264.83 145.12,-1267.21"/>
<polygon fill="#63b8ff" stroke="#63b8ff" points="143.36,-1270.24 153.81,-1272.03 146.76,-1264.12 143.36,-1270.24"/>
</a>
</g>
</g>
<!-- Node17 -->
<g id="Node000017" class="node">
<title>Node17</title>
<g id="a_Node000017"><a xlink:href="group__ssd1681__interface__driver.html#ga7fcf5bad9a6cb639ecc6aec95b8fcab3" target="_top" xlink:title="interface spi bus init">
<polygon fill="white" stroke="#666666" points="278,-1250 146.5,-1250 146.5,-1230 278,-1230 278,-1250"/>
<text xml:space="preserve" text-anchor="middle" x="212.25" y="-1236.5" font-family="Helvetica,sans-Serif" font-size="10.00">ssd1681_interface_spi_init</text>
</a>
</g>
</g>
<!-- Node1&#45;&gt;Node17 -->
<g id="edge16_Node000001_Node000017" class="edge">
<title>Node1&#45;&gt;Node17</title>
<g id="a_edge16_Node000001_Node000017"><a xlink:title=" ">
<path fill="none" stroke="#63b8ff" d="M50.44,-956.3C50.32,-996.64 55.49,-1145.4 135.25,-1221 136.16,-1221.87 137.11,-1222.69 138.09,-1223.48"/>
<polygon fill="#63b8ff" stroke="#63b8ff" points="136.02,-1226.31 146.3,-1228.85 139.84,-1220.45 136.02,-1226.31"/>
</a>
</g>
</g>
<!-- Node18 -->
<g id="Node000018" class="node">
<title>Node18</title>
<g id="a_Node000018"><a xlink:href="group__ssd1681__interface__driver.html#gae260f5410ce3c1862a9e28da1dd9dc99" target="_top" xlink:title="interface spi bus read">
<polygon fill="white" stroke="#666666" points="269,-1212 155.5,-1212 155.5,-1180 269,-1180 269,-1212"/>
<text xml:space="preserve" text-anchor="start" x="163.5" y="-1198.5" font-family="Helvetica,sans-Serif" font-size="10.00">ssd1681_interface_spi</text>
<text xml:space="preserve" text-anchor="middle" x="212.25" y="-1186.5" font-family="Helvetica,sans-Serif" font-size="10.00">_read_cmd</text>
</a>
</g>
</g>
<!-- Node1&#45;&gt;Node18 -->
<g id="edge17_Node000001_Node000018" class="edge">
<title>Node1&#45;&gt;Node18</title>
<g id="a_edge17_Node000001_Node000018"><a xlink:title=" ">
<path fill="none" stroke="#63b8ff" d="M51.43,-956.44C54.74,-991.86 70.34,-1108.75 135.25,-1171 138.29,-1173.91 141.67,-1176.48 145.27,-1178.76"/>
<polygon fill="#63b8ff" stroke="#63b8ff" points="143.43,-1181.74 153.9,-1183.38 146.74,-1175.57 143.43,-1181.74"/>
</a>
</g>
</g>
<!-- Node19 -->
<g id="Node000019" class="node">
<title>Node19</title>
<g id="a_Node000019"><a xlink:href="group__ssd1681__interface__driver.html#ga96ccb333d9ce77158d41a563ce1644eb" target="_top" xlink:title="interface spi bus write">
<polygon fill="white" stroke="#666666" points="269,-1162 155.5,-1162 155.5,-1130 269,-1130 269,-1162"/>
<text xml:space="preserve" text-anchor="start" x="163.5" y="-1148.5" font-family="Helvetica,sans-Serif" font-size="10.00">ssd1681_interface_spi</text>
<text xml:space="preserve" text-anchor="middle" x="212.25" y="-1136.5" font-family="Helvetica,sans-Serif" font-size="10.00">_write_cmd</text>
</a>
</g>
</g>
<!-- Node1&#45;&gt;Node19 -->
<g id="edge18_Node000001_Node000019" class="edge">
<title>Node1&#45;&gt;Node19</title>
<g id="a_edge18_Node000001_Node000019"><a xlink:title=" ">
<path fill="none" stroke="#63b8ff" d="M52.68,-956.4C59.14,-986.46 81.93,-1074.32 135.25,-1121 138.36,-1123.72 141.77,-1126.15 145.38,-1128.31"/>
<polygon fill="#63b8ff" stroke="#63b8ff" points="143.45,-1131.26 153.94,-1132.75 146.67,-1125.04 143.45,-1131.26"/>
</a>
</g>
</g>
<!-- Node20 -->
<g id="Node000020" class="node">
<title>Node20</title>
<g id="a_Node000020"><a xlink:href="group__ssd1681__base__driver.html#ga8e311cca46ecfe3d33bbaee9771107b3" target="_top" xlink:title="set the auto write black ram">
<polygon fill="white" stroke="#666666" points="273.12,-1112 151.38,-1112 151.38,-1080 273.12,-1080 273.12,-1112"/>
<text xml:space="preserve" text-anchor="start" x="159.38" y="-1098.5" font-family="Helvetica,sans-Serif" font-size="10.00">ssd1681_set_auto_write</text>
<text xml:space="preserve" text-anchor="middle" x="212.25" y="-1086.5" font-family="Helvetica,sans-Serif" font-size="10.00">_black_ram</text>
</a>
</g>
</g>
<!-- Node1&#45;&gt;Node20 -->
<g id="edge19_Node000001_Node000020" class="edge">
<title>Node1&#45;&gt;Node20</title>
<g id="a_edge19_Node000001_Node000020"><a xlink:title=" ">
<path fill="none" stroke="#63b8ff" d="M54.84,-956.43C65.02,-980.3 93.21,-1039.26 135.25,-1071 137.23,-1072.5 139.31,-1073.91 141.45,-1075.23"/>
<polygon fill="#63b8ff" stroke="#63b8ff" points="139.46,-1078.13 149.92,-1079.82 142.79,-1071.98 139.46,-1078.13"/>
</a>
</g>
</g>
<!-- Node21 -->
<g id="Node000021" class="node">
<title>Node21</title>
<g id="a_Node000021"><a xlink:href="group__ssd1681__base__driver.html#ga95cea706e4ca043fc89e5cb4eb3ce923" target="_top" xlink:title="set the auto write red ram">
<polygon fill="white" stroke="#666666" points="273.12,-1062 151.38,-1062 151.38,-1030 273.12,-1030 273.12,-1062"/>
<text xml:space="preserve" text-anchor="start" x="159.38" y="-1048.5" font-family="Helvetica,sans-Serif" font-size="10.00">ssd1681_set_auto_write</text>
<text xml:space="preserve" text-anchor="middle" x="212.25" y="-1036.5" font-family="Helvetica,sans-Serif" font-size="10.00">_red_ram</text>
</a>
</g>
</g>
<!-- Node1&#45;&gt;Node21 -->
<g id="edge20_Node000001_Node000021" class="edge">
<title>Node1&#45;&gt;Node21</title>
<g id="a_edge20_Node000001_Node000021"><a xlink:title=" ">
<path fill="none" stroke="#63b8ff" d="M59.75,-956.45C74.24,-972.47 104.1,-1003.1 135.25,-1021 137.59,-1022.34 140.01,-1023.63 142.48,-1024.85"/>
<polygon fill="#63b8ff" stroke="#63b8ff" points="140.98,-1028.01 151.53,-1028.93 143.86,-1021.63 140.98,-1028.01"/>
</a>
</g>
</g>
<!-- Node22 -->
<g id="Node000022" class="node">
<title>Node22</title>
<g id="a_Node000022"><a xlink:href="group__ssd1681__base__driver.html#gab0ef7ac47ef1025cb48a46b0b5cbcacd" target="_top" xlink:title="set the booster soft start">
<polygon fill="white" stroke="#666666" points="266.75,-1012 157.75,-1012 157.75,-980 266.75,-980 266.75,-1012"/>
<text xml:space="preserve" text-anchor="start" x="165.75" y="-998.5" font-family="Helvetica,sans-Serif" font-size="10.00">ssd1681_set_booster</text>
<text xml:space="preserve" text-anchor="middle" x="212.25" y="-986.5" font-family="Helvetica,sans-Serif" font-size="10.00">_soft_start</text>
</a>
</g>
</g>
<!-- Node1&#45;&gt;Node22 -->
<g id="edge21_Node000001_Node000022" class="edge">
<title>Node1&#45;&gt;Node22</title>
<g id="a_edge21_Node000001_Node000022"><a xlink:title=" ">
<path fill="none" stroke="#63b8ff" d="M84.3,-956.48C102.63,-962.19 125.93,-969.44 147.55,-976.17"/>
<polygon fill="#63b8ff" stroke="#63b8ff" points="146.3,-979.45 156.89,-979.08 148.38,-972.76 146.3,-979.45"/>
</a>
</g>
</g>
<!-- Node23 -->
<g id="Node000023" class="node">
<title>Node23</title>
<g id="a_Node000023"><a xlink:href="group__ssd1681__base__driver.html#gade1f9ffdbe9d563981afbe3d266b26c8" target="_top" xlink:title="set the border waveform">
<polygon fill="white" stroke="#666666" points="264.12,-962 160.38,-962 160.38,-930 264.12,-930 264.12,-962"/>
<text xml:space="preserve" text-anchor="start" x="168.38" y="-948.5" font-family="Helvetica,sans-Serif" font-size="10.00">ssd1681_set_border</text>
<text xml:space="preserve" text-anchor="middle" x="212.25" y="-936.5" font-family="Helvetica,sans-Serif" font-size="10.00">_waveform</text>
</a>
</g>
</g>
<!-- Node1&#45;&gt;Node23 -->
<g id="edge22_Node000001_Node000023" class="edge">
<title>Node1&#45;&gt;Node23</title>
<g id="a_edge22_Node000001_Node000023"><a xlink:title=" ">
<path fill="none" stroke="#63b8ff" d="M99.69,-946C115.21,-946 132.57,-946 148.89,-946"/>
<polygon fill="#63b8ff" stroke="#63b8ff" points="148.47,-949.5 158.47,-946 148.47,-942.5 148.47,-949.5"/>
</a>
</g>
</g>
<!-- Node24 -->
<g id="Node000024" class="node">
<title>Node24</title>
<g id="a_Node000024"><a xlink:href="group__ssd1681__base__driver.html#gac41a0723e2137d8eb9ac4a761c2c0d21" target="_top" xlink:title="set the data entry mode">
<polygon fill="white" stroke="#666666" points="288.12,-912 136.38,-912 136.38,-892 288.12,-892 288.12,-912"/>
<text xml:space="preserve" text-anchor="middle" x="212.25" y="-898.5" font-family="Helvetica,sans-Serif" font-size="10.00">ssd1681_set_data_entry_mode</text>
</a>
</g>
</g>
<!-- Node1&#45;&gt;Node24 -->
<g id="edge23_Node000001_Node000024" class="edge">
<title>Node1&#45;&gt;Node24</title>
<g id="a_edge23_Node000001_Node000024"><a xlink:title=" ">
<path fill="none" stroke="#63b8ff" d="M84.71,-935.57C100.1,-930.96 118.55,-925.55 135.25,-921 142.31,-919.08 149.76,-917.12 157.12,-915.24"/>
<polygon fill="#63b8ff" stroke="#63b8ff" points="157.86,-918.66 166.69,-912.81 156.14,-911.87 157.86,-918.66"/>
</a>
</g>
</g>
<!-- Node25 -->
<g id="Node000025" class="node">
<title>Node25</title>
<g id="a_Node000025"><a xlink:href="group__ssd1681__base__driver.html#ga098771d255050c4ea54d43095701721e" target="_top" xlink:title="set the display sequence">
<polygon fill="white" stroke="#666666" points="266,-874 158.5,-874 158.5,-842 266,-842 266,-874"/>
<text xml:space="preserve" text-anchor="start" x="166.5" y="-860.5" font-family="Helvetica,sans-Serif" font-size="10.00">ssd1681_set_display</text>
<text xml:space="preserve" text-anchor="middle" x="212.25" y="-848.5" font-family="Helvetica,sans-Serif" font-size="10.00">_sequence</text>
</a>
</g>
</g>
<!-- Node1&#45;&gt;Node25 -->
<g id="edge24_Node000001_Node000025" class="edge">
<title>Node1&#45;&gt;Node25</title>
<g id="a_edge24_Node000001_Node000025"><a xlink:title=" ">
<path fill="none" stroke="#63b8ff" d="M62.14,-935.51C77.7,-921.79 106.8,-897.77 135.25,-883 139.16,-880.97 143.27,-879.06 147.46,-877.27"/>
<polygon fill="#63b8ff" stroke="#63b8ff" points="148.61,-880.58 156.61,-873.63 146.03,-874.08 148.61,-880.58"/>
</a>
</g>
</g>
<!-- Node26 -->
<g id="Node000026" class="node">
<title>Node26</title>
<g id="a_Node000026"><a xlink:href="group__ssd1681__base__driver.html#ga586ad903998e00c2a80e585a976cb8f8" target="_top" xlink:title="set the display update control">
<polygon fill="white" stroke="#666666" points="266,-824 158.5,-824 158.5,-792 266,-792 266,-824"/>
<text xml:space="preserve" text-anchor="start" x="166.5" y="-810.5" font-family="Helvetica,sans-Serif" font-size="10.00">ssd1681_set_display</text>
<text xml:space="preserve" text-anchor="middle" x="212.25" y="-798.5" font-family="Helvetica,sans-Serif" font-size="10.00">_update_control</text>
</a>
</g>
</g>
<!-- Node1&#45;&gt;Node26 -->
<g id="edge25_Node000001_Node000026" class="edge">
<title>Node1&#45;&gt;Node26</title>
<g id="a_edge25_Node000001_Node000026"><a xlink:title=" ">
<path fill="none" stroke="#63b8ff" d="M55.62,-935.59C66.77,-913.43 95.84,-861.31 135.25,-833 139.12,-830.22 143.32,-827.74 147.69,-825.52"/>
<polygon fill="#63b8ff" stroke="#63b8ff" points="149.06,-828.74 156.74,-821.44 146.18,-822.36 149.06,-828.74"/>
</a>
</g>
</g>
<!-- Node27 -->
<g id="Node000027" class="node">
<title>Node27</title>
<g id="a_Node000027"><a xlink:href="group__ssd1681__base__driver.html#ga37b42018b07318ac8bbaa71fff8e7527" target="_top" xlink:title="set the driver output">
<polygon fill="white" stroke="#666666" points="262.62,-774 161.88,-774 161.88,-742 262.62,-742 262.62,-774"/>
<text xml:space="preserve" text-anchor="start" x="169.88" y="-760.5" font-family="Helvetica,sans-Serif" font-size="10.00">ssd1681_set_driver</text>
<text xml:space="preserve" text-anchor="middle" x="212.25" y="-748.5" font-family="Helvetica,sans-Serif" font-size="10.00">_output</text>
</a>
</g>
</g>
<!-- Node1&#45;&gt;Node27 -->
<g id="edge26_Node000001_Node000027" class="edge">
<title>Node1&#45;&gt;Node27</title>
<g id="a_edge26_Node000001_Node000027"><a xlink:title=" ">
<path fill="none" stroke="#63b8ff" d="M53,-935.9C60.21,-907.5 84.49,-826.18 135.25,-783 140.01,-778.95 145.45,-775.55 151.17,-772.7"/>
<polygon fill="#63b8ff" stroke="#63b8ff" points="152.53,-775.92 160.32,-768.74 149.75,-769.5 152.53,-775.92"/>
</a>
</g>
</g>
<!-- Node28 -->
<g id="Node000028" class="node">
<title>Node28</title>
<g id="a_Node000028"><a xlink:href="group__ssd1681__base__driver.html#ga62ce084b0f5a8d15b945dee7ab4fb5d7" target="_top" xlink:title="end option">
<polygon fill="white" stroke="#666666" points="274.25,-724 150.25,-724 150.25,-704 274.25,-704 274.25,-724"/>
<text xml:space="preserve" text-anchor="middle" x="212.25" y="-710.5" font-family="Helvetica,sans-Serif" font-size="10.00">ssd1681_set_end_option</text>
</a>
</g>
</g>
<!-- Node1&#45;&gt;Node28 -->
<g id="edge27_Node000001_Node000028" class="edge">
<title>Node1&#45;&gt;Node28</title>
<g id="a_edge27_Node000001_Node000028"><a xlink:title=" ">
<path fill="none" stroke="#63b8ff" d="M51.49,-935.69C54.94,-901.28 70.87,-789.33 135.25,-733 136.9,-731.56 138.64,-730.22 140.46,-728.98"/>
<polygon fill="#63b8ff" stroke="#63b8ff" points="141.77,-732.26 148.78,-724.31 138.35,-726.15 141.77,-732.26"/>
</a>
</g>
</g>
<!-- Node29 -->
<g id="Node000029" class="node">
<title>Node29</title>
<g id="a_Node000029"><a xlink:href="group__ssd1681__base__driver.html#gaa378e6883388cde020007df97d704b41" target="_top" xlink:title="set enter vcom sense">
<polygon fill="white" stroke="#666666" points="276.12,-686 148.38,-686 148.38,-654 276.12,-654 276.12,-686"/>
<text xml:space="preserve" text-anchor="start" x="156.38" y="-672.5" font-family="Helvetica,sans-Serif" font-size="10.00">ssd1681_set_enter_vcom</text>
<text xml:space="preserve" text-anchor="middle" x="212.25" y="-660.5" font-family="Helvetica,sans-Serif" font-size="10.00">_sense</text>
</a>
</g>
</g>
<!-- Node1&#45;&gt;Node29 -->
<g id="edge28_Node000001_Node000029" class="edge">
<title>Node1&#45;&gt;Node29</title>
<g id="a_edge28_Node000001_Node000029"><a xlink:title=" ">
<path fill="none" stroke="#63b8ff" d="M50.96,-935.72C52.76,-897.98 64.1,-765.63 135.25,-695 136.3,-693.95 137.4,-692.95 138.54,-691.99"/>
<polygon fill="#63b8ff" stroke="#63b8ff" points="140.5,-694.89 146.69,-686.29 136.49,-689.16 140.5,-694.89"/>
</a>
</g>
</g>
<!-- Node30 -->
<g id="Node000030" class="node">
<title>Node30</title>
<g id="a_Node000030"><a xlink:href="group__ssd1681__base__driver.html#ga79f01f2fff321d4d9e7675a25642d118" target="_top" xlink:title="set the gate driving voltage">
<polygon fill="white" stroke="#666666" points="276.88,-636 147.62,-636 147.62,-604 276.88,-604 276.88,-636"/>
<text xml:space="preserve" text-anchor="start" x="155.62" y="-622.5" font-family="Helvetica,sans-Serif" font-size="10.00">ssd1681_set_gate_driving</text>
<text xml:space="preserve" text-anchor="middle" x="212.25" y="-610.5" font-family="Helvetica,sans-Serif" font-size="10.00">_voltage</text>
</a>
</g>
</g>
<!-- Node1&#45;&gt;Node30 -->
<g id="edge29_Node000001_Node000030" class="edge">
<title>Node1&#45;&gt;Node30</title>
<g id="a_edge29_Node000001_Node000030"><a xlink:title=" ">
<path fill="none" stroke="#63b8ff" d="M50.29,-935.52C49.5,-893.02 52.3,-731.66 135.25,-645 136.25,-643.96 137.29,-642.96 138.38,-642"/>
<polygon fill="#63b8ff" stroke="#63b8ff" points="140.13,-645.05 146.13,-636.33 136,-639.4 140.13,-645.05"/>
</a>
</g>
</g>
<!-- Node31 -->
<g id="Node000031" class="node">
<title>Node31</title>
<g id="a_Node000031"><a xlink:href="group__ssd1681__base__driver.html#ga7cbfd176f91783f338f08ff449fcc7f1" target="_top" xlink:title="set the hv ready detection">
<polygon fill="white" stroke="#666666" points="270.5,-586 154,-586 154,-554 270.5,-554 270.5,-586"/>
<text xml:space="preserve" text-anchor="start" x="162" y="-572.5" font-family="Helvetica,sans-Serif" font-size="10.00">ssd1681_set_hv_ready</text>
<text xml:space="preserve" text-anchor="middle" x="212.25" y="-560.5" font-family="Helvetica,sans-Serif" font-size="10.00">_detection</text>
</a>
</g>
</g>
<!-- Node1&#45;&gt;Node31 -->
<g id="edge30_Node000001_Node000031" class="edge">
<title>Node1&#45;&gt;Node31</title>
<g id="a_edge30_Node000001_Node000031"><a xlink:title=" ">
<path fill="none" stroke="#63b8ff" d="M51.78,-935.52C57.79,-882.83 87.03,-647.31 135.25,-595 137.92,-592.1 140.93,-589.54 144.17,-587.28"/>
<polygon fill="#63b8ff" stroke="#63b8ff" points="145.66,-590.47 152.54,-582.41 142.13,-584.42 145.66,-590.47"/>
</a>
</g>
</g>
<!-- Node32 -->
<g id="Node000032" class="node">
<title>Node32</title>
<g id="a_Node000032"><a xlink:href="group__ssd1681__base__driver.html#ga13a17040ea5b173a75fe80333beca242" target="_top" xlink:title="set the lut register">
<polygon fill="white" stroke="#666666" points="274.62,-536 149.88,-536 149.88,-516 274.62,-516 274.62,-536"/>
<text xml:space="preserve" text-anchor="middle" x="212.25" y="-522.5" font-family="Helvetica,sans-Serif" font-size="10.00">ssd1681_set_lut_register</text>
</a>
</g>
</g>
<!-- Node1&#45;&gt;Node32 -->
<g id="edge31_Node000001_Node000032" class="edge">
<title>Node1&#45;&gt;Node32</title>
<g id="a_edge31_Node000001_Node000032"><a xlink:title=" ">
<path fill="none" stroke="#63b8ff" d="M51.36,-935.52C55.61,-878.25 78.72,-603.66 135.25,-545 136.64,-543.55 138.13,-542.21 139.7,-540.96"/>
<polygon fill="#63b8ff" stroke="#63b8ff" points="141.53,-543.94 148.11,-535.64 137.79,-538.03 141.53,-543.94"/>
</a>
</g>
</g>
<!-- Node33 -->
<g id="Node000033" class="node">
<title>Node33</title>
<g id="a_Node000033"><a xlink:href="group__ssd1681__base__driver.html#ga78d36abd570c23207deec4d3ee001037" target="_top" xlink:title="set the mode">
<polygon fill="white" stroke="#666666" points="262.62,-498 161.88,-498 161.88,-478 262.62,-478 262.62,-498"/>
<text xml:space="preserve" text-anchor="middle" x="212.25" y="-484.5" font-family="Helvetica,sans-Serif" font-size="10.00">ssd1681_set_mode</text>
</a>
</g>
</g>
<!-- Node1&#45;&gt;Node33 -->
<g id="edge32_Node000001_Node000033" class="edge">
<title>Node1&#45;&gt;Node33</title>
<g id="a_edge32_Node000001_Node000033"><a xlink:title=" ">
<path fill="none" stroke="#63b8ff" d="M51.15,-935.73C54.39,-875.84 73.74,-571.96 135.25,-507 139.74,-502.26 145.23,-498.62 151.17,-495.85"/>
<polygon fill="#63b8ff" stroke="#63b8ff" points="151.97,-499.29 160.1,-492.49 149.51,-492.74 151.97,-499.29"/>
</a>
</g>
</g>
<!-- Node34 -->
<g id="Node000034" class="node">
<title>Node34</title>
<g id="a_Node000034"><a xlink:href="group__ssd1681__base__driver.html#gad0495a83b4aef81735e032db8c8649d8" target="_top" xlink:title="set the ram x range">
<polygon fill="white" stroke="#666666" points="264.12,-460 160.38,-460 160.38,-440 264.12,-440 264.12,-460"/>
<text xml:space="preserve" text-anchor="middle" x="212.25" y="-446.5" font-family="Helvetica,sans-Serif" font-size="10.00">ssd1681_set_ram_x</text>
</a>
</g>
</g>
<!-- Node1&#45;&gt;Node34 -->
<g id="edge33_Node000001_Node000034" class="edge">
<title>Node1&#45;&gt;Node34</title>
<g id="a_edge33_Node000001_Node000034"><a xlink:title=" ">
<path fill="none" stroke="#63b8ff" d="M50.98,-935.69C53.34,-872.69 68.84,-540.19 135.25,-469 139.42,-464.52 144.48,-461.04 149.98,-458.32"/>
<polygon fill="#63b8ff" stroke="#63b8ff" points="150.85,-461.74 158.85,-454.8 148.26,-455.24 150.85,-461.74"/>
</a>
</g>
</g>
<!-- Node35 -->
<g id="Node000035" class="node">
<title>Node35</title>
<g id="a_Node000035"><a xlink:href="group__ssd1681__base__driver.html#ga83bbcc284c0e91523661c4751479bf23" target="_top" xlink:title="set the ram x address counter">
<polygon fill="white" stroke="#666666" points="284,-422 140.5,-422 140.5,-390 284,-390 284,-422"/>
<text xml:space="preserve" text-anchor="start" x="148.5" y="-408.5" font-family="Helvetica,sans-Serif" font-size="10.00">ssd1681_set_ram_x_address</text>
<text xml:space="preserve" text-anchor="middle" x="212.25" y="-396.5" font-family="Helvetica,sans-Serif" font-size="10.00">_counter</text>
</a>
</g>
</g>
<!-- Node1&#45;&gt;Node35 -->
<g id="edge34_Node000001_Node000035" class="edge">
<title>Node1&#45;&gt;Node35</title>
<g id="a_edge34_Node000001_Node000035"><a xlink:title=" ">
<path fill="none" stroke="#63b8ff" d="M50.9,-935.8C52.87,-870.48 66.76,-511.02 135.25,-431 135.6,-430.59 135.96,-430.19 136.32,-429.79"/>
<polygon fill="#63b8ff" stroke="#63b8ff" points="138.42,-432.6 143.67,-423.4 133.83,-427.32 138.42,-432.6"/>
</a>
</g>
</g>
<!-- Node36 -->
<g id="Node000036" class="node">
<title>Node36</title>
<g id="a_Node000036"><a xlink:href="group__ssd1681__base__driver.html#ga6403b6c0017feb0710ca4d64fc1db85e" target="_top" xlink:title="set the ram y range">
<polygon fill="white" stroke="#666666" points="264.12,-372 160.38,-372 160.38,-352 264.12,-352 264.12,-372"/>
<text xml:space="preserve" text-anchor="middle" x="212.25" y="-358.5" font-family="Helvetica,sans-Serif" font-size="10.00">ssd1681_set_ram_y</text>
</a>
</g>
</g>
<!-- Node1&#45;&gt;Node36 -->
<g id="edge35_Node000001_Node000036" class="edge">
<title>Node1&#45;&gt;Node36</title>
<g id="a_edge35_Node000001_Node000036"><a xlink:title=" ">
<path fill="none" stroke="#63b8ff" d="M50.67,-935.66C51.16,-866.12 57.4,-466.73 135.25,-381 139.26,-376.58 144.13,-373.12 149.44,-370.42"/>
<polygon fill="#63b8ff" stroke="#63b8ff" points="150.75,-373.67 158.7,-366.67 148.12,-367.18 150.75,-373.67"/>
</a>
</g>
</g>
<!-- Node37 -->
<g id="Node000037" class="node">
<title>Node37</title>
<g id="a_Node000037"><a xlink:href="group__ssd1681__base__driver.html#ga13404579510df0817687f2566f513678" target="_top" xlink:title="set the ram y address counter">
<polygon fill="white" stroke="#666666" points="284,-334 140.5,-334 140.5,-302 284,-302 284,-334"/>
<text xml:space="preserve" text-anchor="start" x="148.5" y="-320.5" font-family="Helvetica,sans-Serif" font-size="10.00">ssd1681_set_ram_y_address</text>
<text xml:space="preserve" text-anchor="middle" x="212.25" y="-308.5" font-family="Helvetica,sans-Serif" font-size="10.00">_counter</text>
</a>
</g>
</g>
<!-- Node1&#45;&gt;Node37 -->
<g id="edge36_Node000001_Node000037" class="edge">
<title>Node1&#45;&gt;Node37</title>
<g id="a_edge36_Node000001_Node000037"><a xlink:title=" ">
<path fill="none" stroke="#63b8ff" d="M50.64,-935.51C50.91,-863.12 55.93,-437.9 135.25,-343 135.6,-342.59 135.95,-342.18 136.31,-341.78"/>
<polygon fill="#63b8ff" stroke="#63b8ff" points="138.42,-344.58 143.59,-335.34 133.78,-339.34 138.42,-344.58"/>
</a>
</g>
</g>
<!-- Node38 -->
<g id="Node000038" class="node">
<title>Node38</title>
<g id="a_Node000038"><a xlink:href="group__ssd1681__base__driver.html#gab2cc5c6e66bb0a541e4c8f82e3cef8f8" target="_top" xlink:title="set the source driving voltage">
<polygon fill="white" stroke="#666666" points="265.25,-284 159.25,-284 159.25,-252 265.25,-252 265.25,-284"/>
<text xml:space="preserve" text-anchor="start" x="167.25" y="-270.5" font-family="Helvetica,sans-Serif" font-size="10.00">ssd1681_set_source</text>
<text xml:space="preserve" text-anchor="middle" x="212.25" y="-258.5" font-family="Helvetica,sans-Serif" font-size="10.00">_driving_voltage</text>
</a>
</g>
</g>
<!-- Node1&#45;&gt;Node38 -->
<g id="edge37_Node000001_Node000038" class="edge">
<title>Node1&#45;&gt;Node38</title>
<g id="a_edge37_Node000001_Node000038"><a xlink:title=" ">
<path fill="none" stroke="#63b8ff" d="M50.51,-935.63C49.9,-860.24 49.65,-396.51 135.25,-293 139.03,-288.43 143.65,-284.7 148.74,-281.64"/>
<polygon fill="#63b8ff" stroke="#63b8ff" points="150.24,-284.8 157.65,-277.22 147.13,-278.53 150.24,-284.8"/>
</a>
</g>
</g>
<!-- Node39 -->
<g id="Node000039" class="node">
<title>Node39</title>
<g id="a_Node000039"><a xlink:href="group__ssd1681__base__driver.html#gabd3afe3847a438c45e9abe67d0501871" target="_top" xlink:title="set the temperature sensor">
<polygon fill="white" stroke="#666666" points="276.5,-234 148,-234 148,-202 276.5,-202 276.5,-234"/>
<text xml:space="preserve" text-anchor="start" x="156" y="-220.5" font-family="Helvetica,sans-Serif" font-size="10.00">ssd1681_set_temperature</text>
<text xml:space="preserve" text-anchor="middle" x="212.25" y="-208.5" font-family="Helvetica,sans-Serif" font-size="10.00">_sensor</text>
</a>
</g>
</g>
<!-- Node1&#45;&gt;Node39 -->
<g id="edge38_Node000001_Node000039" class="edge">
<title>Node1&#45;&gt;Node39</title>
<g id="a_edge38_Node000001_Node000039"><a xlink:title=" ">
<path fill="none" stroke="#63b8ff" d="M50.41,-935.6C48.96,-856.91 43.42,-355.09 135.25,-243 136.35,-241.66 137.52,-240.39 138.76,-239.18"/>
<polygon fill="#63b8ff" stroke="#63b8ff" points="140.82,-242.01 146.56,-233.11 136.52,-236.49 140.82,-242.01"/>
</a>
</g>
</g>
<!-- Node40 -->
<g id="Node000040" class="node">
<title>Node40</title>
<g id="a_Node000040"><a xlink:href="group__ssd1681__base__driver.html#gadea7141100173a49f228ba9bf1bce6cb" target="_top" xlink:title="set the vci detection">
<polygon fill="white" stroke="#666666" points="279.5,-184 145,-184 145,-164 279.5,-164 279.5,-184"/>
<text xml:space="preserve" text-anchor="middle" x="212.25" y="-170.5" font-family="Helvetica,sans-Serif" font-size="10.00">ssd1681_set_vci_detection</text>
</a>
</g>
</g>
<!-- Node1&#45;&gt;Node40 -->
<g id="edge39_Node000001_Node000040" class="edge">
<title>Node1&#45;&gt;Node40</title>
<g id="a_edge39_Node000001_Node000040"><a xlink:title=" ">
<path fill="none" stroke="#63b8ff" d="M51.08,-935.69C54.98,-849.6 83.81,-251.78 135.25,-193 135.71,-192.47 136.19,-191.96 136.67,-191.46"/>
<polygon fill="#63b8ff" stroke="#63b8ff" points="138.63,-194.37 144.26,-185.39 134.26,-188.9 138.63,-194.37"/>
</a>
</g>
</g>
<!-- Node41 -->
<g id="Node000041" class="node">
<title>Node41</title>
<g id="a_Node000041"><a xlink:href="group__ssd1681__base__driver.html#ga345700cb2e1892b1b5d919f334534862" target="_top" xlink:title="write register for vcom control">
<polygon fill="white" stroke="#666666" points="289.25,-146 135.25,-146 135.25,-126 289.25,-126 289.25,-146"/>
<text xml:space="preserve" text-anchor="middle" x="212.25" y="-132.5" font-family="Helvetica,sans-Serif" font-size="10.00">ssd1681_set_vcom_control_reg</text>
</a>
</g>
</g>
<!-- Node1&#45;&gt;Node41 -->
<g id="edge40_Node000001_Node000041" class="edge">
<title>Node1&#45;&gt;Node41</title>
<g id="a_edge40_Node000001_Node000041"><a xlink:title=" ">
<path fill="none" stroke="#63b8ff" d="M51.02,-935.74C54.52,-847.39 81.3,-216.99 135.25,-155 135.71,-154.47 136.18,-153.96 136.67,-153.45"/>
<polygon fill="#63b8ff" stroke="#63b8ff" points="138.63,-156.36 144.24,-147.37 134.25,-150.91 138.63,-156.36"/>
</a>
</g>
</g>
<!-- Node42 -->
<g id="Node000042" class="node">
<title>Node42</title>
<g id="a_Node000042"><a xlink:href="group__ssd1681__base__driver.html#gac36c77ad11487d9752d96b46f659e661" target="_top" xlink:title="write vcom register">
<polygon fill="white" stroke="#666666" points="281.38,-108 143.12,-108 143.12,-88 281.38,-88 281.38,-108"/>
<text xml:space="preserve" text-anchor="middle" x="212.25" y="-94.5" font-family="Helvetica,sans-Serif" font-size="10.00">ssd1681_set_vcom_register</text>
</a>
</g>
</g>
<!-- Node1&#45;&gt;Node42 -->
<g id="edge41_Node000001_Node000042" class="edge">
<title>Node1&#45;&gt;Node42</title>
<g id="a_edge41_Node000001_Node000042"><a xlink:title=" ">
<path fill="none" stroke="#63b8ff" d="M50.98,-935.54C54.13,-844.06 78.84,-182.14 135.25,-117 135.71,-116.47 136.18,-115.95 136.66,-115.45"/>
<polygon fill="#63b8ff" stroke="#63b8ff" points="138.63,-118.36 144.22,-109.36 134.24,-112.91 138.63,-118.36"/>
</a>
</g>
</g>
<!-- Node43 -->
<g id="Node000043" class="node">
<title>Node43</title>
<g id="a_Node000043"><a xlink:href="group__ssd1681__base__driver.html#ga1c8169053cf6f20cfc18415edde025f0" target="_top" xlink:title="set the vcom sense duration">
<polygon fill="white" stroke="#666666" points="278.38,-70 146.12,-70 146.12,-38 278.38,-38 278.38,-70"/>
<text xml:space="preserve" text-anchor="start" x="154.12" y="-56.5" font-family="Helvetica,sans-Serif" font-size="10.00">ssd1681_set_vcom_sense</text>
<text xml:space="preserve" text-anchor="middle" x="212.25" y="-44.5" font-family="Helvetica,sans-Serif" font-size="10.00">_duration</text>
</a>
</g>
</g>
<!-- Node1&#45;&gt;Node43 -->
<g id="edge42_Node000001_Node000043" class="edge">
<title>Node1&#45;&gt;Node43</title>
<g id="a_edge42_Node000001_Node000043"><a xlink:title=" ">
<path fill="none" stroke="#63b8ff" d="M50.96,-935.68C54.04,-842.59 78.83,-149.47 135.25,-79 135.91,-78.17 136.61,-77.37 137.33,-76.59"/>
<polygon fill="#63b8ff" stroke="#63b8ff" points="139.44,-79.39 144.77,-70.23 134.89,-74.07 139.44,-79.39"/>
</a>
</g>
</g>
<!-- Node44 -->
<g id="Node000044" class="node">
<title>Node44</title>
<g id="a_Node000044"><a xlink:href="group__ssd1681__base__driver.html#ga6800ac7cf42c2e4ec9959b9b32774843" target="_top" xlink:title="software reset">
<polygon fill="white" stroke="#666666" points="273.5,-20 151,-20 151,0 273.5,0 273.5,-20"/>
<text xml:space="preserve" text-anchor="middle" x="212.25" y="-6.5" font-family="Helvetica,sans-Serif" font-size="10.00">ssd1681_software_reset</text>
</a>
</g>
</g>
<!-- Node1&#45;&gt;Node44 -->
<g id="edge43_Node000001_Node000044" class="edge">
<title>Node1&#45;&gt;Node44</title>
<g id="a_edge43_Node000001_Node000044"><a xlink:title=" ">
<path fill="none" stroke="#63b8ff" d="M50.86,-935.67C53.19,-839.43 73,-101.59 135.25,-29 136.98,-26.99 138.88,-25.17 140.93,-23.53"/>
<polygon fill="#63b8ff" stroke="#63b8ff" points="142.77,-26.5 149.4,-18.24 139.06,-20.57 142.77,-26.5"/>
</a>
</g>
</g>
</g>
</svg>
