<?xml version="1.0" encoding="UTF-8" standalone="no"?>
<!DOCTYPE svg PUBLIC "-//W3C//DTD SVG 1.1//EN"
 "http://www.w3.org/Graphics/SVG/1.1/DTD/svg11.dtd">
<!-- Generated by graphviz version 13.1.0 (20250701.0955)
 -->
<!-- Title: ssd1681_basic_write_point Pages: 1 -->
<svg width="266pt" height="78pt"
 viewBox="0.00 0.00 266.00 78.00" xmlns="http://www.w3.org/2000/svg" xmlns:xlink="http://www.w3.org/1999/xlink">
<g id="graph0" class="graph" transform="scale(1 1) rotate(0) translate(4 74)">
<title>ssd1681_basic_write_point</title>
<!-- Node1 -->
<g id="Node000001" class="node">
<title>Node1</title>
<g id="a_Node000001"><a xlink:title="basic example write a point">
<polygon fill="#999999" stroke="#666666" points="107.5,-54 0,-54 0,-22 107.5,-22 107.5,-54"/>
<text xml:space="preserve" text-anchor="start" x="8" y="-40.5" font-family="Helvetica,sans-Serif" font-size="10.00">ssd1681_basic_write</text>
<text xml:space="preserve" text-anchor="middle" x="53.75" y="-28.5" font-family="Helvetica,sans-Serif" font-size="10.00">_point</text>
</a>
</g>
</g>
<!-- Node2 -->
<g id="Node000002" class="node">
<title>Node2</title>
<g id="a_Node000002"><a xlink:href="group__ssd1681__base__driver.html#gadfd231d5cb003604f65e43d913957329" target="_top" xlink:title="update the gram data">
<polygon fill="white" stroke="#666666" points="257.75,-70 143.5,-70 143.5,-50 257.75,-50 257.75,-70"/>
<text xml:space="preserve" text-anchor="middle" x="200.62" y="-56.5" font-family="Helvetica,sans-Serif" font-size="10.00">ssd1681_gram_update</text>
</a>
</g>
</g>
<!-- Node1&#45;&gt;Node2 -->
<g id="edge1_Node000001_Node000002" class="edge">
<title>Node1&#45;&gt;Node2</title>
<g id="a_edge1_Node000001_Node000002"><a xlink:title=" ">
<path fill="none" stroke="#63b8ff" d="M107.87,-46.07C115.67,-47.25 123.78,-48.48 131.82,-49.7"/>
<polygon fill="#63b8ff" stroke="#63b8ff" points="131.19,-53.15 141.6,-51.19 132.24,-46.23 131.19,-53.15"/>
</a>
</g>
</g>
<!-- Node3 -->
<g id="Node000003" class="node">
<title>Node3</title>
<g id="a_Node000003"><a xlink:href="group__ssd1681__base__driver.html#ga9fb024697bc0865652bdc71fb3a9a0bd" target="_top" xlink:title="write a point in the gram">
<polygon fill="white" stroke="#666666" points="253.62,-32 147.62,-32 147.62,0 253.62,0 253.62,-32"/>
<text xml:space="preserve" text-anchor="start" x="155.62" y="-18.5" font-family="Helvetica,sans-Serif" font-size="10.00">ssd1681_gram_write</text>
<text xml:space="preserve" text-anchor="middle" x="200.62" y="-6.5" font-family="Helvetica,sans-Serif" font-size="10.00">_point</text>
</a>
</g>
</g>
<!-- Node1&#45;&gt;Node3 -->
<g id="edge2_Node000001_Node000003" class="edge">
<title>Node1&#45;&gt;Node3</title>
<g id="a_edge2_Node000001_Node000003"><a xlink:title=" ">
<path fill="none" stroke="#63b8ff" d="M107.87,-29.93C117.06,-28.54 126.69,-27.08 136.12,-25.64"/>
<polygon fill="#63b8ff" stroke="#63b8ff" points="136.62,-29.11 145.98,-24.15 135.57,-22.19 136.62,-29.11"/>
</a>
</g>
</g>
</g>
</svg>
